<?xml version="1.0" standalone="no"?><svg xmlns="http://www.w3.org/2000/svg" viewBox="0 0 1440 320"><path fill="#eeeeee" fill-opacity="1" d="M0,96L18.5,85.3C36.9,75,74,53,111,53.3C147.7,53,185,75,222,69.3C258.5,64,295,32,332,32C369.2,32,406,64,443,74.7C480,85,517,75,554,85.3C590.8,96,628,128,665,117.3C701.5,107,738,53,775,32C812.3,11,849,21,886,42.7C923.1,64,960,96,997,96C1033.8,96,1071,64,1108,74.7C1144.6,85,1182,139,1218,160C1255.4,181,1292,171,1329,165.3C1366.2,160,1403,160,1422,160L1440,160L1440,0L1421.5,0C1403.1,0,1366,0,1329,0C1292.3,0,1255,0,1218,0C1181.5,0,1145,0,1108,0C1070.8,0,1034,0,997,0C960,0,923,0,886,0C849.2,0,812,0,775,0C738.5,0,702,0,665,0C627.7,0,591,0,554,0C516.9,0,480,0,443,0C406.2,0,369,0,332,0C295.4,0,258,0,222,0C184.6,0,148,0,111,0C73.8,0,37,0,18,0L0,0Z"></path></svg>