<?xml version="1.0" standalone="no"?><svg xmlns="http://www.w3.org/2000/svg" viewBox="0 0 1440 320"><path fill="#eeeeee" fill-opacity="1" d="M0,128L7.7,122.7C15.5,117,31,107,46,128C61.9,149,77,203,93,197.3C108.4,192,124,128,139,122.7C154.8,117,170,171,186,208C201.3,245,217,267,232,245.3C247.7,224,263,160,279,154.7C294.2,149,310,203,325,197.3C340.6,192,356,128,372,96C387.1,64,403,64,418,69.3C433.5,75,449,85,465,96C480,107,495,117,511,133.3C526.5,149,542,171,557,186.7C572.9,203,588,213,604,192C619.4,171,635,117,650,122.7C665.8,128,681,192,697,208C712.3,224,728,192,743,170.7C758.7,149,774,139,790,128C805.2,117,821,107,836,101.3C851.6,96,867,96,883,112C898.1,128,914,160,929,144C944.5,128,960,64,975,80C991,96,1006,192,1022,218.7C1037.4,245,1053,203,1068,192C1083.9,181,1099,203,1115,197.3C1130.3,192,1146,160,1161,144C1176.8,128,1192,128,1208,128C1223.2,128,1239,128,1254,149.3C1269.7,171,1285,213,1301,229.3C1316.1,245,1332,235,1347,192C1362.6,149,1378,75,1394,80C1409,85,1425,171,1432,213.3L1440,256L1440,0L1432.3,0C1424.5,0,1409,0,1394,0C1378.1,0,1363,0,1347,0C1331.6,0,1316,0,1301,0C1285.2,0,1270,0,1254,0C1238.7,0,1223,0,1208,0C1192.3,0,1177,0,1161,0C1145.8,0,1130,0,1115,0C1099.4,0,1084,0,1068,0C1052.9,0,1037,0,1022,0C1006.5,0,991,0,975,0C960,0,945,0,929,0C913.5,0,898,0,883,0C867.1,0,852,0,836,0C820.6,0,805,0,790,0C774.2,0,759,0,743,0C727.7,0,712,0,697,0C681.3,0,666,0,650,0C634.8,0,619,0,604,0C588.4,0,573,0,557,0C541.9,0,526,0,511,0C495.5,0,480,0,465,0C449,0,434,0,418,0C402.6,0,387,0,372,0C356.1,0,341,0,325,0C309.7,0,294,0,279,0C263.2,0,248,0,232,0C216.8,0,201,0,186,0C170.3,0,155,0,139,0C123.9,0,108,0,93,0C77.4,0,62,0,46,0C31,0,15,0,8,0L0,0Z"></path></svg>